# xmcd CD database file
#
# Track frame offsets:
#	150
#	18600
#	37195
#	52775
#	71987
#	93350
#	110550
#	128262
#	149550
#	166350
#
# Disc length: 2450 seconds
#
# Revision: 0
# Processed by: cddbd v1.5.1PL0 Copyright (c) Steve Scherf et al.
# Submitted via: CDex 1.51
#
DISCID=8b09900a
DTITLE=詩人の血 - What if・・・・・・
DYEAR=1900
DGENRE=JPop
TTITLE0=青空ドライブ
TTITLE1=Day by day
TTITLE2=バレンタイン
TTITLE3=Summer
TTITLE4=航海
TTITLE5=タキティナ
TTITLE6=太陽と巨人
TTITLE7=グレーの夕方
TTITLE8=ひゆひゆ
TTITLE9=バタフライ
EXTD=
EXTT0=
EXTT1=
EXTT2=
EXTT3=
EXTT4=
EXTT5=
EXTT6=
EXTT7=
EXTT8=
EXTT9=
PLAYORDER=
